# xmcd CD database file
#
# Track frame offsets:
#	150
#	27612
#	64834
#	98781
#	127837
#	158016
#	184829
#	213456
#
# Disc length: 3249 seconds
#
# Revision: 3
# Processed by: cddbd v1.5.2PL0 Copyright (c) Steve Scherf et al.
# Submitted via: CDex 1.70beta3
#
DISCID=6a0caf08
DTITLE=Manhattan Jazz Orchestra - IN THE MOOD Plays Glenn Miller
DYEAR=2007
DGENRE=Jazz
TTITLE0=String Of Pearls
TTITLE1=Tuxedo Junction
TTITLE2=In The Mood
TTITLE3=Song Of The Volga Boatman
TTITLE4=Polka Dots And Moonbeams
TTITLE5=American Patrol
TTITLE6=Little Brown Jug
TTITLE7=Chattanooga Choo Choo
EXTD=Powerd by gracenote music web API YEAR: 2007
EXTT0=
EXTT1=
EXTT2=
EXTT3=
EXTT4=
EXTT5=
EXTT6=
EXTT7=
PLAYORDER=
